<svg width="22" height="22" viewBox="0 0 22 22" fill="none" xmlns="http://www.w3.org/2000/svg">
<path d="M7.77167 12.1373C7.77167 11.8617 7.54813 11.6384 7.27231 11.6384H5.52976C5.25426 11.6384 5.03068 11.8617 5.03068 12.1373V13.8796C5.03068 14.1556 5.25426 14.3789 5.52976 14.3789H7.27231C7.54813 14.3789 7.77167 14.1556 7.77167 13.8796V12.1373Z" fill="#646676"/>
<path d="M12.1265 12.1373C12.1265 11.8617 11.9029 11.6384 11.6277 11.6384H9.88489C9.60939 11.6384 9.38581 11.8617 9.38581 12.1373V13.8796C9.38581 14.1556 9.60939 14.3789 9.88489 14.3789H11.6277C11.9029 14.3789 12.1265 14.1556 12.1265 13.8796V12.1373Z" fill="#646676"/>
<path d="M16.4816 12.1373C16.4816 11.8617 16.258 11.6384 15.9825 11.6384H14.24C13.9641 11.6384 13.7406 11.8617 13.7406 12.1373V13.8796C13.7406 14.1556 13.9641 14.3789 14.24 14.3789H15.9825C16.258 14.3789 16.4816 14.1556 16.4816 13.8796V12.1373Z" fill="#646676"/>
<path d="M7.77167 16.4926C7.77167 16.2166 7.54813 15.9935 7.27231 15.9935H5.52976C5.25426 15.9935 5.03068 16.2166 5.03068 16.4926V18.2346C5.03068 18.5104 5.25426 18.7337 5.52976 18.7337H7.27231C7.54813 18.7337 7.77167 18.5103 7.77167 18.2346V16.4926Z" fill="#646676"/>
<path d="M12.1265 16.4926C12.1265 16.2166 11.9029 15.9935 11.6277 15.9935H9.88489C9.60939 15.9935 9.38581 16.2166 9.38581 16.4926V18.2346C9.38581 18.5104 9.60939 18.7337 9.88489 18.7337H11.6277C11.9029 18.7337 12.1265 18.5103 12.1265 18.2346V16.4926Z" fill="#646676"/>
<path d="M16.4816 16.4926C16.4816 16.2166 16.258 15.9935 15.9827 15.9935H14.24C13.9641 15.9935 13.7406 16.2166 13.7406 16.4926V18.2346C13.7406 18.5104 13.9641 18.7337 14.24 18.7337H15.9827C16.258 18.7337 16.4816 18.5103 16.4816 18.2346V16.4926Z" fill="#646676"/>
<path d="M19.5975 2.44962V5.11088C19.5975 6.31374 18.6217 7.28306 17.419 7.28306H16.0447C14.842 7.28306 13.8532 6.31374 13.8532 5.11088V2.44006H7.65907V5.11088C7.65907 6.31374 6.67037 7.28306 5.46778 7.28306H4.09325C2.89061 7.28306 1.91485 6.31374 1.91485 5.11088V2.44962C0.863727 2.4813 0 3.35107 0 4.42012V20.0164C0 21.1055 0.882791 22 1.97195 22H19.5403C20.6279 22 21.5123 21.1037 21.5123 20.0164V4.42012C21.5123 3.35107 20.6486 2.4813 19.5975 2.44962ZM18.9592 19.0452C18.9592 19.5159 18.5775 19.8977 18.1067 19.8977H3.36806C2.89719 19.8977 2.51556 19.5159 2.51556 19.0452V10.9891C2.51556 10.5183 2.89715 10.1364 3.36806 10.1364H18.1066C18.5775 10.1364 18.9591 10.5183 18.9591 10.9891L18.9592 19.0452Z" fill="#646676"/>
<path d="M4.08847 5.85635H5.44781C5.86041 5.85635 6.19494 5.52231 6.19494 5.10971V0.746911C6.19494 0.334269 5.86041 0 5.44781 0H4.08847C3.67583 0 3.34134 0.334269 3.34134 0.746911V5.10971C3.34134 5.52231 3.67583 5.85635 4.08847 5.85635Z" fill="#646676"/>
<path d="M16.0272 5.85635H17.3866C17.7989 5.85635 18.1334 5.52231 18.1334 5.10971V0.746911C18.1335 0.334269 17.799 0 17.3866 0H16.0272C15.6147 0 15.2802 0.334269 15.2802 0.746911V5.10971C15.2802 5.52231 15.6147 5.85635 16.0272 5.85635Z" fill="#646676"/>
</svg>
