<svg width="22" height="22" viewBox="0 0 22 22" fill="none" xmlns="http://www.w3.org/2000/svg">
<path d="M11 0C4.93462 0 0 4.93462 0 11C0 17.0654 4.93462 22 11 22C17.0654 22 22 17.0654 22 11C21.9996 4.93462 17.0654 0 11 0ZM11 20.227C5.91214 20.227 1.77297 16.0879 1.77297 10.9996C1.77297 5.91174 5.91214 1.77258 11 1.77258C16.0879 1.77258 20.227 5.91214 20.227 11C20.227 16.0879 16.0879 20.227 11 20.227Z" fill="#646676"/>
<path d="M14.5064 7.49237L9.37196 12.6272L7.49314 10.7484C7.14715 10.402 6.58592 10.402 6.23993 10.7484C5.89355 11.0944 5.89355 11.6556 6.23993 12.0016L8.74555 14.5072C8.91855 14.6802 9.14565 14.7671 9.37235 14.7671C9.59906 14.7671 9.82577 14.6806 9.99876 14.5072L15.76 8.74597C16.106 8.39959 16.106 7.83875 15.76 7.49237C15.4137 7.14638 14.8528 7.14638 14.5064 7.49237Z" fill="#646676"/>
</svg>
