<svg width="14" height="14" viewBox="0 0 14 14" fill="none" xmlns="http://www.w3.org/2000/svg">
<path d="M6.99984 0C3.13398 0 0 3.13407 0 6.99993C0 10.8657 3.13398 14 6.99984 14C10.8657 14 13.9999 10.8657 13.9999 6.99993C13.9999 3.13398 10.8657 0 6.99984 0ZM7.02116 10.3024V10.3023H6.97842H3.98836C3.98836 8.11565 5.9088 8.11616 6.33497 7.5444L6.38374 7.28367C5.785 6.98024 5.36233 6.24868 5.36233 5.39309C5.36233 4.26589 6.09557 3.35196 6.99984 3.35196C7.9041 3.35196 8.63734 4.26589 8.63734 5.39309C8.63734 6.2414 8.22219 6.96838 7.63143 7.27662L7.68696 7.57291C8.15452 8.11695 10.0111 8.15242 10.0111 10.3024H7.02116V10.3024Z" fill="#646676"/>
</svg>
