<svg width="14" height="14" viewBox="0 0 14 14" fill="none" xmlns="http://www.w3.org/2000/svg">
<path d="M4.94562 7.7237C4.94562 7.54833 4.80337 7.40625 4.62785 7.40625H3.51895C3.34363 7.40625 3.20135 7.54833 3.20135 7.7237V8.83246C3.20135 9.00806 3.34363 9.1502 3.51895 9.1502H4.62785C4.80337 9.1502 4.94562 9.00806 4.94562 8.83246V7.7237Z" fill="#646676"/>
<path d="M7.71687 7.7237C7.71687 7.54833 7.57459 7.40625 7.39941 7.40625H6.29038C6.11506 7.40625 5.97278 7.54833 5.97278 7.7237V8.83246C5.97278 9.00806 6.11506 9.1502 6.29038 9.1502H7.39941C7.57459 9.1502 7.71687 9.00806 7.71687 8.83246V7.7237Z" fill="#646676"/>
<path d="M10.4883 7.7237C10.4883 7.54833 10.346 7.40625 10.1707 7.40625H9.06179C8.88627 7.40625 8.74402 7.54833 8.74402 7.7237V8.83246C8.74402 9.00806 8.88627 9.1502 9.06179 9.1502H10.1707C10.346 9.1502 10.4883 9.00806 10.4883 8.83246V7.7237Z" fill="#646676"/>
<path d="M4.94562 10.4952C4.94562 10.3196 4.80337 10.1776 4.62785 10.1776H3.51895C3.34363 10.1776 3.20135 10.3196 3.20135 10.4952V11.6038C3.20135 11.7793 3.34363 11.9214 3.51895 11.9214H4.62785C4.80337 11.9214 4.94562 11.7792 4.94562 11.6038V10.4952Z" fill="#646676"/>
<path d="M7.71687 10.4952C7.71687 10.3196 7.57459 10.1776 7.39941 10.1776H6.29038C6.11506 10.1776 5.97278 10.3196 5.97278 10.4952V11.6038C5.97278 11.7793 6.11506 11.9214 6.29038 11.9214H7.39941C7.57459 11.9214 7.71687 11.7792 7.71687 11.6038V10.4952Z" fill="#646676"/>
<path d="M10.4883 10.4952C10.4883 10.3196 10.346 10.1776 10.1708 10.1776H9.06179C8.88627 10.1776 8.74402 10.3196 8.74402 10.4952V11.6038C8.74402 11.7793 8.88627 11.9214 9.06179 11.9214H10.1708C10.346 11.9214 10.4883 11.7792 10.4883 11.6038V10.4952Z" fill="#646676"/>
<path d="M12.4711 1.55881V3.25234C12.4711 4.0178 11.8501 4.63464 11.0848 4.63464H10.2103C9.44486 4.63464 8.81566 4.0178 8.81566 3.25234V1.55273H4.87394V3.25234C4.87394 4.0178 4.24477 4.63464 3.47949 4.63464H2.60479C1.83948 4.63464 1.21854 4.0178 1.21854 3.25234V1.55881C0.549643 1.57898 0 2.13246 0 2.81277V12.7376C0 13.4307 0.561775 14 1.25487 14H12.4347C13.1268 14 13.6896 13.4296 13.6896 12.7376V2.81277C13.6896 2.13246 13.14 1.57898 12.4711 1.55881ZM12.0649 12.1196C12.0649 12.4191 11.822 12.6621 11.5224 12.6621H2.14331C1.84366 12.6621 1.60081 12.4191 1.60081 12.1196V6.99304C1.60081 6.6934 1.84364 6.4504 2.14331 6.4504H11.5224C11.822 6.4504 12.0649 6.6934 12.0649 6.99304L12.0649 12.1196Z" fill="#646676"/>
<path d="M2.60173 3.72676H3.46676C3.72932 3.72676 3.94221 3.51419 3.94221 3.25163V0.475306C3.94221 0.212716 3.72932 0 3.46676 0H2.60173C2.33914 0 2.12628 0.212716 2.12628 0.475306V3.25163C2.12628 3.51419 2.33914 3.72676 2.60173 3.72676Z" fill="#646676"/>
<path d="M10.1991 3.72676H11.0641C11.3265 3.72676 11.5394 3.51419 11.5394 3.25163V0.475306C11.5395 0.212716 11.3266 0 11.0641 0H10.1991C9.93658 0 9.72369 0.212716 9.72369 0.475306V3.25163C9.72369 3.51419 9.93658 3.72676 10.1991 3.72676Z" fill="#646676"/>
</svg>
