<svg width="24" height="20" viewBox="0 0 24 20" fill="none" xmlns="http://www.w3.org/2000/svg">
<path d="M21.8751 0H5.66375C4.69107 0 3.91293 0.799758 3.91293 1.75082V11.8235C3.91293 12.7961 4.71268 13.5743 5.66375 13.5743H16.8387L19.3677 16.1248C19.4758 16.2329 19.6055 16.2978 19.7568 16.2978C20.0594 16.2978 20.3188 16.06 20.3188 15.7358V13.5743H21.8751C22.8477 13.5743 23.6259 12.7745 23.6259 11.8235V1.75082C23.6259 0.778143 22.8261 0 21.8751 0ZM8.14948 8.66765C7.26326 8.66765 6.52835 7.93273 6.52835 7.04652C6.52835 6.1603 7.26326 5.42539 8.14948 5.42539C9.0357 5.42539 9.77061 6.1603 9.77061 7.04652C9.77061 7.93273 9.05732 8.66765 8.14948 8.66765ZM13.8343 8.66765C12.948 8.66765 12.2131 7.93273 12.2131 7.04652C12.2131 6.1603 12.948 5.42539 13.8343 5.42539C14.7205 5.42539 15.4554 6.1603 15.4554 7.04652C15.4554 7.93273 14.7205 8.66765 13.8343 8.66765ZM19.4974 8.66765C18.6112 8.66765 17.8763 7.93273 17.8763 7.04652C17.8763 6.1603 18.6112 5.42539 19.4974 5.42539C20.3836 5.42539 21.1185 6.1603 21.1185 7.04652C21.1185 7.93273 20.3836 8.66765 19.4974 8.66765Z" fill="#646676"/>
<path d="M2.91869 11.8667V8.42987H1.14625C0.519414 8.42987 0.000651776 8.94863 0.000651776 9.57547V16.1897C-0.0209633 16.8598 0.497799 17.3785 1.14625 17.3785H2.16216V18.8051C2.16216 18.9997 2.33508 19.1726 2.52962 19.1726C2.63769 19.1726 2.72415 19.1293 2.789 19.0645L4.45336 17.4001H11.8025C12.4293 17.4001 12.9481 16.8814 12.9481 16.2545V14.6118H5.6638C4.15075 14.6118 2.91869 13.3797 2.91869 11.8667Z" fill="#646676"/>
</svg>
