<svg width="19" height="19" viewBox="0 0 19 19" fill="none" xmlns="http://www.w3.org/2000/svg">
<path d="M17.9689 8.17437H10.8256V1.031C10.8256 0.705595 10.3837 0 9.49996 0C8.61625 0 8.17437 0.705634 8.17437 1.031V8.17441H1.031C0.705634 8.17437 0 8.61625 0 9.49992C0 10.3836 0.705634 10.8255 1.031 10.8255H8.17441V17.9689C8.17441 18.2943 8.61625 18.9999 9.5 18.9999C10.3838 18.9999 10.8256 18.2943 10.8256 17.9689V10.8255H17.969C18.2943 10.8255 19 10.3837 19 9.49992C19 8.61617 18.2943 8.17437 17.9689 8.17437Z" fill="#272A41"/>
</svg>
