<svg width="23" height="23" viewBox="0 0 23 23" fill="none" xmlns="http://www.w3.org/2000/svg">
<path d="M11.4998 0C5.14871 0 0 5.14887 0 11.5C0 17.8509 5.14871 23.0002 11.4998 23.0002C17.8509 23.0002 23 17.8509 23 11.5C23 5.14871 17.8509 0 11.4998 0ZM11.5348 16.9254V16.9253H11.4646H6.55235C6.55235 13.3329 9.70739 13.3338 10.4075 12.3944L10.4876 11.9661C9.50399 11.4676 8.80961 10.2658 8.80961 8.86013C8.80961 7.00829 10.0142 5.50683 11.4998 5.50683C12.9854 5.50683 14.19 7.00829 14.19 8.86013C14.19 10.2538 13.508 11.4481 12.5374 11.9545L12.6287 12.4413C13.3968 13.3351 16.4469 13.3934 16.4469 16.9254H11.5348V16.9254Z" fill="#646676"/>
</svg>
