<svg width="22" height="22" viewBox="0 0 22 22" fill="none" xmlns="http://www.w3.org/2000/svg">
<path d="M11 0C4.9 0 0 4.9 0 11C0 17.1 4.9 22 11 22C17.1 22 22 17.1 22 11C22 4.9 17.1 0 11 0ZM17.35 7.55L9.35 15.85C9.25 15.95 9.15 16 9 16C8.85 16 8.7 15.95 8.65 15.85L4.75 11.65L4.65 11.55C4.55 11.45 4.5 11.3 4.5 11.2C4.5 11.1 4.55 10.95 4.65 10.85L5.35 10.15C5.55 9.95 5.85 9.95 6.05 10.15L6.1 10.2L8.85 13.15C8.95 13.25 9.1 13.25 9.2 13.15L15.9 6.2H15.95C16.15 6 16.45 6 16.65 6.2L17.35 6.9C17.55 7.05 17.55 7.35 17.35 7.55Z" fill="#646676"/>
</svg>
