<svg width="14" height="14" viewBox="0 0 14 14" fill="none" xmlns="http://www.w3.org/2000/svg">
<path d="M13.6574 12.0028L10.6159 8.96147C10.5998 8.94531 10.5808 8.93401 10.5639 8.91897C11.1624 8.01116 11.5117 6.92449 11.5117 5.75589C11.5117 2.57698 8.93468 0 5.75583 0C2.57698 0 0 2.57698 0 5.75583C0 8.93463 2.57693 11.5117 5.75578 11.5117C6.92444 11.5117 8.01105 11.1624 8.91885 10.5639C8.9339 10.5808 8.94514 10.5997 8.9613 10.6159L12.0028 13.6574C12.4597 14.1142 13.2004 14.1142 13.6574 13.6574C14.1142 13.2005 14.1142 12.4597 13.6574 12.0028ZM5.75583 9.5163C3.67892 9.5163 1.99531 7.83269 1.99531 5.75583C1.99531 3.67892 3.67898 1.99531 5.75583 1.99531C7.83263 1.99531 9.5163 3.67898 9.5163 5.75583C9.5163 7.83269 7.83263 9.5163 5.75583 9.5163Z" fill="#646676"/>
</svg>
