<svg width="23" height="25" viewBox="0 0 23 25" fill="none" xmlns="http://www.w3.org/2000/svg">
<path d="M11.5 24.4889C8.42822 24.4889 5.54029 23.2926 3.36823 21.1206C1.19618 18.9485 0 16.0606 0 12.9889C0 10.104 1.07292 7.34507 3.02113 5.22013C4.95695 3.10877 7.58789 1.80143 10.4294 1.53885C10.6302 1.52039 10.8298 1.58716 10.9788 1.72314C11.1279 1.85912 11.2129 2.05154 11.2129 2.25328V12.9889C11.2129 13.1472 11.3417 13.276 11.5 13.276C11.5498 13.276 11.5969 13.2638 11.6398 13.2398C11.6543 13.2317 11.669 13.2241 11.684 13.217L21.3311 8.65896C21.5135 8.57272 21.7239 8.56727 21.9106 8.64418C22.0973 8.721 22.2429 8.87286 22.3118 9.0626C22.7685 10.3191 23 11.6402 23 12.9888C23 16.0606 21.8038 18.9485 19.6317 21.1206C17.4597 23.2926 14.5718 24.4889 11.5 24.4889Z" fill="#646676"/>
<path d="M13.5018 10.5872C13.3679 10.5872 13.2345 10.5497 13.1178 10.4758C12.9102 10.3443 12.7843 10.1156 12.7843 9.86975V0.717378C12.7843 0.515584 12.8692 0.323212 13.0183 0.187232C13.1674 0.0513 13.3669 -0.0152313 13.5677 0.00294406C17.2173 0.34024 20.5168 2.43031 22.3937 5.59396C22.4968 5.76768 22.5219 5.97679 22.4627 6.16997C22.4036 6.36311 22.2658 6.52238 22.0832 6.60872L13.8082 10.5184C13.7109 10.5644 13.6061 10.5872 13.5018 10.5872Z" fill="#646676"/>
</svg>
